<svg width="16" height="18" viewBox="0 0 16 18" fill="none" xmlns="http://www.w3.org/2000/svg">
<path d="M10.9 2.10047C10.9 2.10047 10.7 2.16047 10.36 2.27047C10.3 2.09047 10.22 1.86047 10.1 1.64047C9.72005 0.910468 9.16005 0.530468 8.48005 0.520468C8.43005 0.520468 8.39005 0.520468 8.34005 0.530468C8.32005 0.510468 8.30005 0.480468 8.28005 0.460468C7.99005 0.140468 7.61005 -0.00953155 7.16005 0.000468445C6.29005 0.0304684 5.42005 0.660469 4.71005 1.78047C4.21005 2.57047 3.84005 3.56047 3.73005 4.32047C2.73005 4.63047 2.03005 4.85047 2.01005 4.85047C1.50005 5.01047 1.49005 5.03047 1.42005 5.50047C1.37005 5.86047 0.0500488 16.1005 0.0500488 16.1005L11.03 18.0005V2.08047C10.98 2.08047 10.93 2.09047 10.9 2.10047ZM8.36005 2.89047C7.78005 3.07047 7.14005 3.27047 6.51005 3.46047C6.69005 2.77047 7.03005 2.09047 7.45005 1.64047C7.61005 1.47047 7.82005 1.29047 8.08005 1.18047C8.32005 1.69047 8.37005 2.40047 8.36005 2.89047ZM7.17005 0.580468C7.37005 0.580468 7.55005 0.620468 7.70005 0.720468C7.46005 0.840468 7.24005 1.02047 7.02005 1.25047C6.47005 1.84047 6.04005 2.77047 5.87005 3.66047C5.34005 3.82047 4.83005 3.98047 4.35005 4.13047C4.65005 2.72047 5.83005 0.620468 7.17005 0.580468ZM5.47005 8.57047C5.53005 9.50047 7.99005 9.71047 8.13005 11.9005C8.24005 13.6205 7.22005 14.8005 5.74005 14.8905C3.98005 15.0005 3.00005 13.9605 3.00005 13.9605L3.37005 12.3705C3.37005 12.3705 4.35005 13.1105 5.13005 13.0605C5.64005 13.0305 5.82005 12.6105 5.81005 12.3205C5.73005 11.1005 3.73005 11.1705 3.61005 9.17047C3.50005 7.48047 4.61005 5.78047 7.05005 5.62047C8.00005 5.56047 8.48005 5.80047 8.48005 5.80047L7.92005 7.89047C7.92005 7.89047 7.30005 7.61047 6.56005 7.65047C5.48005 7.72047 5.46005 8.40047 5.47005 8.57047ZM8.94005 2.71047C8.93005 2.27047 8.88005 1.65047 8.67005 1.12047C9.33005 1.25047 9.66005 1.99047 9.80005 2.44047C9.55005 2.52047 9.26005 2.61047 8.94005 2.71047ZM11.39 17.9605L15.95 16.8305C15.95 16.8305 13.99 3.57047 13.98 3.48047C13.97 3.39047 13.89 3.34047 13.82 3.33047C13.75 3.32047 12.47 3.30047 12.47 3.30047C12.47 3.30047 11.69 2.54047 11.39 2.25047V17.9605Z" fill="#0FA958"/>
</svg>
